<mxfile host="app.diagrams.net" modified="2024-04-01T16:47:50.485Z" agent="Mozilla/5.0 (Macintosh; Intel Mac OS X 10_15_7) AppleWebKit/605.1.15 (KHTML, like Gecko) Version/17.3.1 Safari/605.1.15" version="24.2.1" etag="dFL4KuXsUfBizOGgqPOr" type="github">
  <diagram name="Page-1" id="T-UybxyKcpdg0A93sc8s">
    <mxGraphModel>
      <root>
        <mxCell id="0" />
        <mxCell id="1" parent="0" />
      </root>
    </mxGraphModel>
  </diagram>
</mxfile>
